<svg width="34" height="32" viewBox="0 0 34 32" fill="none" xmlns="http://www.w3.org/2000/svg">
<path fill-rule="evenodd" clip-rule="evenodd" d="M16.78 0.250001C12.856 0.24873 9.0596 1.60752 6.07058 4.0831C3.08155 6.55867 1.09507 9.98938 0.466779 13.761C-0.161511 17.5326 0.609424 21.3988 2.64155 24.6674C4.67369 27.9361 7.83432 30.3937 11.5576 31.6002C12.3783 31.7494 12.6847 31.2513 12.6847 30.8251C12.6847 30.4415 12.671 29.1762 12.6628 27.831C8.06682 28.8033 7.09838 25.9343 7.09838 25.9343C6.34606 24.0697 5.26272 23.5795 5.26272 23.5795C3.76356 22.5806 5.37489 22.6019 5.37489 22.6019C7.03546 22.7165 7.90814 24.2588 7.90814 24.2588C9.38269 26.7175 11.7737 26.0089 12.7148 25.5907C12.8652 24.5518 13.292 23.8433 13.7653 23.441C10.1076 23.0388 6.23663 21.6589 6.23663 15.4949C6.21208 13.8939 6.82255 12.3454 7.94097 11.1716C7.76862 10.7667 7.20233 9.1311 8.09964 6.9095C8.09964 6.9095 9.48664 6.47796 12.6436 8.55839C15.3524 7.83737 18.2103 7.83737 20.9191 8.55839C24.0597 6.48862 25.4577 6.9095 25.4577 6.9095C26.355 9.12578 25.7914 10.7613 25.6191 11.1716C26.7344 12.3447 27.3428 13.8911 27.3179 15.4896C27.3179 21.6696 23.4551 23.0281 19.7756 23.4277C20.3665 23.9258 20.8945 24.9061 20.8945 26.4058C20.8945 28.5582 20.8781 30.2923 20.8781 30.8197C20.8781 31.2486 21.1735 31.7494 22.0107 31.5922C25.7285 30.3811 28.8829 27.9221 30.91 24.6547C32.9372 21.3872 33.7049 17.5243 33.0761 13.7564C32.4473 9.98847 30.4629 6.56106 27.4775 4.08676C24.4921 1.61246 20.7004 0.252516 16.78 0.250001Z" fill="#272D2B"/>
<path d="M6.51565 23.3451C6.48009 23.425 6.35151 23.449 6.24208 23.3957C6.13265 23.3425 6.05332 23.2332 6.09162 23.1533C6.12992 23.0734 6.25849 23.0494 6.36519 23.1027C6.47188 23.156 6.55395 23.2652 6.51291 23.3451H6.51565Z" fill="#272D2B"/>
<path d="M7.18593 24.0724C7.10659 24.1443 6.95339 24.1096 6.8467 23.9978C6.79683 23.9585 6.76425 23.9021 6.75561 23.8403C6.74696 23.7784 6.76291 23.7156 6.80019 23.6648C6.88226 23.5929 7.02999 23.6275 7.13942 23.7394C7.24885 23.8513 7.268 24.0058 7.18593 24.0724Z" fill="#272D2B"/>
<path d="M7.83701 24.9993C7.73579 25.0686 7.56344 24.9993 7.46769 24.8608C7.37194 24.7223 7.36647 24.5465 7.46769 24.4772C7.56891 24.408 7.74126 24.4772 7.83701 24.6131C7.93276 24.7489 7.93823 24.9301 7.83701 24.9993Z" fill="#272D2B"/>
<path d="M8.73979 25.8944C8.70652 25.9178 8.66877 25.9346 8.62877 25.9437C8.58877 25.9528 8.54731 25.954 8.50681 25.9473C8.46631 25.9406 8.42759 25.9261 8.39291 25.9047C8.35823 25.8832 8.32828 25.8553 8.30482 25.8225C8.15983 25.6919 8.11879 25.5081 8.21181 25.4122C8.30482 25.3163 8.48537 25.3403 8.63857 25.4735C8.79177 25.6067 8.8246 25.7878 8.72885 25.8837L8.73979 25.8944Z" fill="#272D2B"/>
<path d="M9.95991 26.4138C9.91887 26.539 9.73558 26.5976 9.54682 26.5444C9.35806 26.4911 9.23768 26.3419 9.27325 26.214C9.30881 26.0862 9.49758 26.0276 9.68634 26.0835C9.8751 26.1395 9.99547 26.286 9.95991 26.4138Z" fill="#272D2B"/>
<path d="M11.3113 26.5097C11.3113 26.6429 11.1581 26.7521 10.9612 26.7548C10.7642 26.7575 10.6055 26.6536 10.6028 26.5231C10.6001 26.3925 10.756 26.278 10.9557 26.2753C11.1554 26.2727 11.3113 26.3792 11.3113 26.5097Z" fill="#272D2B"/>
<path d="M12.5698 26.3019C12.5944 26.4325 12.4576 26.5683 12.2634 26.6003C12.0691 26.6323 11.894 26.555 11.8694 26.4245C11.8448 26.2939 11.9843 26.1581 12.1758 26.1261C12.3673 26.0942 12.5451 26.1714 12.5698 26.3019Z" fill="#272D2B"/>
</svg>
