<svg width="32" height="31" viewBox="0 0 32 31" fill="none" xmlns="http://www.w3.org/2000/svg">
<path d="M27.3769 25.8121H22.7835V18.8507C22.7835 17.1906 22.7529 15.0537 20.3946 15.0537C18.0021 15.0537 17.6361 16.8623 17.6361 18.7298V25.8116H13.0429V11.4961H17.4524V13.4524H17.5142C18.412 11.9668 20.0876 11.0762 21.8649 11.1401C26.5204 11.1401 27.3788 14.1035 27.3788 17.9589L27.3769 25.8121ZM7.86007 9.53923H7.85951C6.39721 9.53923 5.19393 8.37488 5.19393 6.95973C5.19393 5.54458 6.39721 4.3801 7.85951 4.3801C9.32167 4.3801 10.5248 5.54432 10.5251 6.9592V6.95973C10.5251 8.37461 9.32209 9.5391 7.86007 9.53923ZM10.1567 25.8121H5.5586V11.4961H10.1567V25.8121ZM29.6667 0.25207H3.25035C2.01032 0.238517 0.978004 1.21433 0.962891 2.41438V28.0851C0.97745 29.2858 2.00963 30.2627 3.25035 30.2498H29.6667C30.9105 30.265 31.9463 29.2882 31.9629 28.0851V2.41263C31.9463 1.21004 30.9091 0.234356 29.6667 0.25019V0.25207Z" fill="#272D2B"/>
</svg>
