<svg width="84" height="90" viewBox="0 0 84 90" fill="none" xmlns="http://www.w3.org/2000/svg">
<path d="M49.3594 54.4074V89.6207H83.9954V81.3946H57.8741V65.6641H79.5216V57.438H57.8741V43.1507H83.8511V34.636H62.3479L49.3594 54.4074Z" fill="black"/>
<path d="M17.5984 45.9911L24.4178 44.9809C27.632 45.1359 30.5693 44.7138 34.355 46.857C37.5839 49.3645 38.4969 54.1095 35.2051 57.5295C32.9434 59.8793 28.938 60.1555 25.5359 58.4568C24.0978 57.7387 22.1589 56.7686 20.6291 55.569C19.0161 54.3043 18.1055 52.5353 17.1905 50.7535C16.0792 48.5895 14.4175 47.4889 12.1144 46.9247C9.00868 46.1639 6.23261 46.7407 4.17698 48.1454C-0.500562 51.3417 -0.257068 59.1514 1.302 64.0307C2.3189 67.2132 4.17484 68.2403 5.43678 64.0307C5.66433 63.2716 5.87258 62.3422 6.0531 61.2245C6.29619 59.7194 6.41132 58.3856 6.48605 57.8251C6.71366 56.9802 6.95963 56.4594 7.35195 56.2571C7.74263 55.9913 8.10238 55.8995 8.42491 55.949C9.03579 56.0428 9.51313 56.6437 9.81421 57.5295C10.6405 61.0015 13.6989 64.1301 17.3098 66.2511C20.3919 68.0615 25.1952 70.0852 28.8551 68.8424C29.3242 68.6831 29.7197 68.4916 30.0097 68.3602L47.3277 42.8161C46.7555 42.0935 45.9215 41.3376 45.0029 40.6514C41.1752 37.7923 36.2943 36.4696 31.7415 35.3117C30.5237 34.8365 29.2239 34.4436 27.9892 33.9422C26.8647 33.4855 25.7942 32.9388 24.8888 32.1579C23.8304 31.245 22.6648 30.2378 22.5859 28.9617C22.4996 27.5681 22.5305 26.5946 22.6495 25.0652C23.0944 26.5758 23.4977 28.4137 24.4178 29.7234C24.5742 29.946 24.7761 30.1106 25.1029 30.3239C26.726 31.3024 27.9619 31.6698 30.0097 32.4983L31.0727 33.0027C31.1256 33.3498 30.8123 34.7629 31.4934 34.8208C32.3417 34.893 31.7468 33.1497 32.896 33.1943C33.3822 33.2582 33.8659 33.4033 34.355 33.4371C34.9692 33.4822 35.0816 32.6957 34.0835 32.294C33.761 32.1343 33.1114 32.1065 33.095 31.686C33.0831 31.519 33.1406 31.3624 33.2389 31.2243C33.4451 30.9348 34.2252 30.4021 33.7145 30.0454C33.544 29.9262 33.24 29.9556 32.9078 30.2606C32.4869 30.6504 32.1532 31.0034 31.7415 31.4151C31.7415 31.4151 28.1336 29.972 27.7006 28.2402C27.2677 26.5085 27.3747 25.1775 27.7006 23.7434C28.0667 22.1323 29.562 21.0338 31.1642 20.8287C35.8908 20.2235 39.3664 24.5147 42.2766 27.4731C45.6751 30.9279 48.6247 30.6878 51.6404 27.8073C54.5167 25.0599 53.0487 22.1363 50.3171 19.7255C47.0062 12.0002 46.4565 7.83772 36.9369 9.47903H34.4835H25.5359C24.7273 9.50199 24.5242 9.34972 24.8555 8.61313L27.2677 4.20834C27.6939 3.69464 28.003 3.49263 28.8551 3.50828L35.0608 3.995L35.2772 4.8609C35.7054 6.67261 37.4489 6.63277 36.6483 4.42795C36.5818 4.20956 36.6041 4.04294 36.7309 3.93765C37.2695 3.49009 38.9573 3.82036 38.9573 2.84047C38.9573 2.11888 37.4416 2.52462 36.9369 2.2632C36.2223 1.89309 36.7155 1.257 36.9785 0.819984C37.4281 0.0727609 36.3712 -0.634933 35.6047 0.964348C35.397 1.32653 35.2783 1.54553 35.0608 1.97456L28.5665 1.0832C27.0997 0.881868 25.8706 1.45567 24.729 2.40752C23.2535 3.63768 21.5742 5.78814 19.1859 9.47903C16.7575 13.6613 13.3118 17.5376 11.8541 22.1789C10.995 24.9048 10.79 27.8768 11.3093 30.6935C11.8066 33.3913 12.9685 35.9465 14.8564 38.0063C15.3756 38.5727 15.9525 39.1182 16.5882 39.6412C17.6763 40.6744 14.796 40.3007 13.7019 39.9298C12.7896 39.6205 11.4326 38.4667 11.3297 37.0435C11.3246 36.9734 11.3226 36.9028 11.3238 36.8315C11.7125 35.1664 11.7528 34.1959 11.6552 33.7242C11.5606 33.2672 11.3365 33.2784 11.1744 33.5799C10.9506 33.9874 11.0482 35.4742 10.6373 35.6507C10.5493 35.6886 10.4446 35.5952 10.3445 35.2586C10.0475 33.5613 9.37239 33.0026 8.93944 33.1118C7.51165 33.608 10.0701 36.5675 8.79512 35.9322C7.73925 35.4061 6.7519 35.2084 6.58444 35.5098C6.39418 35.8522 6.89375 36.4626 9.08376 37.3558C9.17704 37.3954 9.27323 37.4356 9.37239 37.4764C8.37664 42.6719 12.3026 46.1927 17.5984 45.9911Z" fill="black"/>
<line x1="21.0495" y1="89.3669" x2="67.8081" y2="18.6517" stroke="black" stroke-width="1.44317"/>
<path d="M41.8789 18.3283C41.8789 19.6035 40.8451 20.6373 39.5698 20.6373C38.2945 20.6373 37.2607 19.6035 37.2607 18.3283C37.2607 17.053 38.4389 15.1533 39.5698 16.0192C40.7007 16.8852 41.4223 17.6068 41.8789 18.3283Z" fill="white"/>
</svg>
